<svg width="16" height="17" viewBox="0 0 16 17" fill="none" xmlns="http://www.w3.org/2000/svg">
<path d="M15.9998 8.3447C15.9998 7.67351 15.9454 7.18371 15.8275 6.67578H8.16309V9.70523H12.6619C12.5713 10.4581 12.0815 11.5919 10.993 12.3537L10.9777 12.4552L13.4011 14.3325L13.569 14.3493C15.1109 12.9252 15.9998 10.83 15.9998 8.3447Z" fill="#4285F4"/>
<path d="M8.16315 16.3265C10.3672 16.3265 12.2175 15.6009 13.569 14.3492L10.9931 12.3537C10.3037 12.8344 9.37854 13.17 8.16315 13.17C6.00443 13.17 4.17224 11.746 3.51912 9.77777L3.42339 9.7859L0.903559 11.736L0.870605 11.8276C2.213 14.4943 4.97037 16.3265 8.16315 16.3265Z" fill="#34A853"/>
<path d="M3.51924 9.77777C3.34691 9.26984 3.24717 8.72558 3.24717 8.16325C3.24717 7.60086 3.34691 7.05666 3.51017 6.54873L3.50561 6.44055L0.954205 4.45911L0.870728 4.49881C0.317464 5.6054 0 6.84806 0 8.16325C0 9.47844 0.317464 10.721 0.870728 11.8276L3.51924 9.77777Z" fill="#FBBC05"/>
<path d="M8.16315 3.15644C9.696 3.15644 10.73 3.81857 11.3196 4.3719L13.6234 2.12245C12.2085 0.80726 10.3672 0 8.16315 0C4.97037 0 2.213 1.83219 0.870605 4.49883L3.51005 6.54875C4.17224 4.5805 6.00443 3.15644 8.16315 3.15644Z" fill="#EB4335"/>
</svg>
