<svg width="15" height="15" viewBox="0 0 15 15" fill="none" xmlns="http://www.w3.org/2000/svg">
<path d="M2 1H13C13.2652 1 13.5196 1.10536 13.7071 1.29289C13.8946 1.48043 14 1.73478 14 2V10.5C14 10.7652 13.8946 11.0196 13.7071 11.2071C13.5196 11.3946 13.2652 11.5 13 11.5H11V14L7.88 11.5H2C1.73478 11.5 1.48043 11.3946 1.29289 11.2071C1.10536 11.0196 1 10.7652 1 10.5V2C1 1.73478 1.10536 1.48043 1.29289 1.29289C1.48043 1.10536 1.73478 1 2 1Z" stroke="#6DA7D5" stroke-linecap="round" stroke-linejoin="round"/>
</svg>
