<svg width="145" height="29" viewBox="0 0 145 29" fill="none" xmlns="http://www.w3.org/2000/svg">
<path d="M21.3411 26.2589V18H24V29H0V18H2.65903V26.2589H21.3411Z" fill="#BCBBBB"/>
<path d="M5.27746 18.0591L18.3797 20.7258L18.9342 18.1604L5.83217 15.4937L5.27746 18.0591ZM7.01052 11.9831L19.1422 17.4853L20.2515 15.1224L8.11975 9.58654L7.01052 11.9831ZM10.3728 6.17724L20.6673 14.5148L22.3658 12.5232L12.0712 4.18566L10.3728 6.17724ZM17.0279 0L14.8787 1.55272L22.851 12.0169L25 10.4642L17.0279 0ZM5 24H18.3796V21.4008H5.0001V24H5Z" fill="#F48023"/>
<path d="M33.259 23.9997C31.509 23.9997 30.1384 23.6028 29 22.5167L30.0121 21.5139C30.8342 22.3702 31.9516 22.7046 33.2379 22.7046C34.9456 22.7046 35.9999 22.0987 35.9999 20.8871C35.9999 19.989 35.4725 19.4874 34.2708 19.3828L32.5631 19.2368C30.5393 19.0697 29.4639 18.1715 29.4639 16.4792C29.4639 14.599 31.0662 13.471 33.28 13.471C34.7556 13.471 36.084 13.8262 37.0117 14.5779L36.0207 15.5599C35.2828 14.9962 34.3343 14.7453 33.259 14.7453C31.7407 14.7453 30.9396 15.3931 30.9396 16.4373C30.9396 17.3149 31.4457 17.8373 32.7528 17.9417L34.4184 18.0877C36.2316 18.255 37.4753 18.9442 37.4753 20.8663C37.4753 22.8509 35.7677 23.9997 33.259 23.9997ZM42.0917 23.8745C40.3205 23.8745 39.4351 22.6419 39.4351 21.117V14.808H38.128V13.6589H39.4351V10.4419H40.9533V13.6589H43.1668V14.808H40.9533V21.0751C40.9533 22.0152 41.3959 22.5794 42.3657 22.5794H43.1668V23.8745H42.0917ZM51.0175 19.1324H48.1082C46.5479 19.1324 45.7888 19.7591 45.7888 20.9496C45.7888 22.1403 46.5266 22.7046 48.1712 22.7046C49.0569 22.7046 49.8368 22.6419 50.4903 22.0152C50.8489 21.681 51.0175 21.0961 51.0175 20.2393V19.1324ZM51.0175 23.8745V22.8925C50.1743 23.7283 49.4152 24 48.0236 24C46.5899 24 45.7467 23.7283 45.0929 23.0599C44.587 22.5581 44.3131 21.7853 44.3131 20.9707C44.3131 19.1743 45.5778 18.0041 47.897 18.0041H51.0175V17.0221C51.0175 15.5185 50.2584 14.7661 48.3608 14.7661C47.0331 14.7661 46.358 15.0797 45.7467 15.936L44.7137 14.9962C45.6411 13.8054 46.6955 13.471 48.3821 13.471C51.1648 13.471 52.5352 14.6617 52.5352 16.8966V23.8745H51.0175ZM58.4808 23.9997C55.8664 23.9997 53.8845 22.245 53.8845 18.7355C53.8845 15.2257 55.8664 13.471 58.4808 13.471C59.9144 13.471 60.8209 13.8471 61.896 14.9962L60.8632 15.9568C60.0831 15.1003 59.4715 14.808 58.4808 14.808C57.4687 14.808 56.6255 15.2049 56.0773 15.9779C55.5924 16.6463 55.4025 17.4404 55.4025 18.7355C55.4025 20.0306 55.5924 20.8244 56.0773 21.4931C56.6255 22.2658 57.4687 22.6627 58.4808 22.6627C59.4715 22.6627 60.0831 22.3496 60.8632 21.4931L61.896 22.4751C60.8209 23.6236 59.9144 23.9997 58.4808 23.9997ZM70.2063 23.8745L66.9174 18.61L64.8933 20.908V23.8745H63.3753V9H64.8936V18.9445L69.5738 13.5964H71.4714L67.9502 17.5239L72.0826 23.8745H70.2063ZM78.2055 16.2188C77.9057 15.9218 77.506 15.7636 76.9867 15.7636C76.467 15.7636 76.0875 15.9218 75.7877 16.2188C75.248 16.7534 75.1883 17.6444 75.1883 18.7136C75.1883 19.7827 75.248 20.6934 75.7877 21.2277C76.0875 21.5247 76.467 21.6835 76.9867 21.6835C77.506 21.6835 77.9057 21.5247 78.2055 21.2277C78.7447 20.6934 78.8049 19.7827 78.8049 18.7136C78.8049 17.6444 78.7447 16.7534 78.2055 16.2188ZM80.2237 22.7327C79.5839 23.406 78.5251 23.9997 76.9867 23.9997C75.448 23.9997 74.409 23.4057 73.7698 22.7327C72.8305 21.7626 72.5907 20.5943 72.5907 18.7136C72.5907 16.8525 72.8305 15.6842 73.7698 14.7139C74.409 14.0411 75.448 13.4468 76.9867 13.4468C78.5251 13.4468 79.5839 14.0408 80.2237 14.7142C81.1627 15.6842 81.4025 16.8525 81.4025 18.7138C81.4025 20.5943 81.1627 21.7626 80.2237 22.7327ZM87.2402 23.8809H85.2023L81.3658 13.5659H84.1031L86.2214 19.9409L88.3195 13.5653H91.0566L87.2405 23.8806M97.2142 16.6546C96.9346 16.0406 96.3551 15.5854 95.4758 15.5854C94.5967 15.5854 94.0172 16.0406 93.7376 16.6543C93.5777 17.0307 93.5174 17.3074 93.4975 17.7632H97.454C97.4338 17.3074 97.3741 17.0304 97.2142 16.6543V16.6546ZM93.4975 19.5251C93.4975 20.8519 94.3169 21.822 95.7755 21.822C96.9145 21.822 97.4739 21.5053 98.1335 20.8516L99.712 22.3763C98.6529 23.4254 97.6338 24 95.7556 24C93.2978 24 90.94 22.8911 90.94 18.7136C90.94 15.3476 92.7782 13.4468 95.4758 13.4468C98.3731 13.4468 100.012 15.5457 100.012 18.3769V19.5251H93.4975ZM106.96 16.377C106.56 15.9812 106.221 15.7636 105.582 15.7636C104.782 15.7636 103.903 16.3576 103.903 17.6641V23.8809H101.305V13.5659H103.843V14.5557C104.342 13.9617 105.342 13.4468 106.461 13.4468C107.48 13.4468 108.199 13.7044 108.918 14.4172L106.96 16.377M119.503 23.8809C117.365 23.8809 116.466 22.396 116.466 20.931V9.34501H119.063V20.7722C119.063 21.3865 119.323 21.7029 119.982 21.7029H120.981V23.8809H119.503ZM113.312 15.5302V23.8809H110.715V15.5302H109.636V13.5703H110.715V12.283C110.715 10.818 111.634 9.33307 113.752 9.33307H115.23V11.5108H114.232C113.612 11.5108 113.312 11.8475 113.312 12.4415V13.5703H115.23V15.5299H113.312L113.312 15.5302ZM126.969 16.2188C126.669 15.9218 126.269 15.7636 125.75 15.7636C125.23 15.7636 124.851 15.9218 124.551 16.2188C124.011 16.7534 123.951 17.6444 123.951 18.7136C123.951 19.7827 124.011 20.6934 124.551 21.2277C124.851 21.5247 125.23 21.6835 125.75 21.6835C126.269 21.6835 126.669 21.5247 126.969 21.2277C127.508 20.6934 127.568 19.7827 127.568 18.7136C127.568 17.6444 127.508 16.7534 126.969 16.2188ZM128.987 22.7327C128.347 23.406 127.288 23.9997 125.75 23.9997C124.211 23.9997 123.173 23.4057 122.533 22.7327C121.594 21.7626 121.354 20.5943 121.354 18.7136C121.354 16.8525 121.594 15.6842 122.533 14.7139C123.172 14.0411 124.211 13.4468 125.75 13.4468C127.288 13.4468 128.347 14.0408 128.987 14.7142C129.926 15.6842 130.166 16.8525 130.166 18.7138C130.166 20.5943 129.926 21.7626 128.987 22.7327ZM141.823 23.8809H139.685L137.507 17.4068L135.329 23.8809H133.191L129.994 13.5659H132.752L134.43 19.9409L136.548 13.5653H138.446L140.584 19.9409L142.263 13.5653H145L141.823 23.8809Z" fill="#0A0B09"/>
</svg>
